/* XPM */
static char * tile_xpm[] = {
"64 64 140 2",
"  	c #EFEBEF",
". 	c #EFEFEF",
"+ 	c #E7E7E7",
"@ 	c #E7E3E7",
"# 	c #DEDFDE",
"$ 	c #DEDBDE",
"% 	c #C6C3C6",
"& 	c #000000",
"* 	c #4A515A",
"= 	c #DEDFE7",
"- 	c #DEDBE7",
"; 	c #D6DBDE",
"> 	c #D6D7DE",
", 	c #D6D3DE",
"' 	c #D6CFDE",
") 	c #CECFD6",
"! 	c #CECBD6",
"~ 	c #C6C7D6",
"{ 	c #C6C7CE",
"] 	c #C6C3CE",
"^ 	c #BDBECE",
"/ 	c #BDBEC6",
"( 	c #BDBAC6",
"_ 	c #B5B6C6",
": 	c #B5B2BD",
"< 	c #B5AEBD",
"[ 	c #ADAEBD",
"} 	c #ADAAB5",
"| 	c #ADA6B5",
"1 	c #A5A6B5",
"2 	c #A59EAD",
"3 	c #9C9AAD",
"4 	c #8C8A9C",
"5 	c #4A4952",
"6 	c #CECFDE",
"7 	c #BDB6C6",
"8 	c #A5A6AD",
"9 	c #948E9C",
"0 	c #8C8A94",
"a 	c #B5B6BD",
"b 	c #ADAABD",
"c 	c #9C9EAD",
"d 	c #9C9AA5",
"e 	c #94929C",
"f 	c #8C8E9C",
"g 	c #848A94",
"h 	c #4A454A",
"i 	c #9496A5",
"j 	c #848694",
"k 	c #42454A",
"l 	c #CED3DE",
"m 	c #A5A2AD",
"n 	c #9C96A5",
"o 	c #9492A5",
"p 	c #424142",
"q 	c #393C42",
"r 	c #848294",
"s 	c #7B7D8C",
"t 	c #393842",
"u 	c #D6D3D6",
"v 	c #CEC7D6",
"w 	c #A5A2B5",
"x 	c #7B798C",
"y 	c #8C929C",
"z 	c #84828C",
"A 	c #C6CBD6",
"B 	c #9CA2AD",
"C 	c #7B828C",
"D 	c #73798C",
"E 	c #393439",
"F 	c #8C8E94",
"G 	c #737984",
"H 	c #949AA5",
"I 	c #94969C",
"J 	c #737584",
"K 	c #313439",
"L 	c #B5BAC6",
"M 	c #73717B",
"N 	c #313031",
"O 	c #B5B2C6",
"P 	c #7B7984",
"Q 	c #312C31",
"R 	c #292829",
"S 	c #ADB2BD",
"T 	c #6B6D7B",
"U 	c #A5AAB5",
"V 	c #737184",
"W 	c #292429",
"X 	c #84869C",
"Y 	c #6B6973",
"Z 	c #212429",
"` 	c #7B7584",
" .	c #636573",
"..	c #212029",
"+.	c #ADAEB5",
"@.	c #736D7B",
"#.	c #6B697B",
"$.	c #636173",
"%.	c #212021",
"&.	c #847D8C",
"*.	c #63697B",
"=.	c #636973",
"-.	c #63616B",
";.	c #6B717B",
">.	c #5A5D6B",
",.	c #181C21",
"'.	c #181C18",
").	c #181818",
"!.	c #5A5963",
"~.	c #101818",
"{.	c #6B6573",
"].	c #101418",
"^.	c #635D6B",
"/.	c #52515A",
"(.	c #525563",
"_.	c #8C869C",
":.	c #8C8694",
"<.	c #5A5563",
"[.	c #4A4D5A",
"}.	c #101010",
"|.	c #63657B",
"1.	c #5A596B",
"2.	c #5A556B",
"3.	c #525163",
"4.	c #6B657B",
"5.	c #42455A",
"6.	c #424152",
"7.	c #081010",
"8.	c #212431",
"9.	c #080C10",
"0.	c #7B8294",
"a.	c #5A616B",
"b.	c #52596B",
"c.	c #000400",
"d.	c #4A494A",
"e.	c #423C42",
"f.	c #292C31",
"g.	c #211C21",
"h.	c #181418",
"i.	c #100C10",
"  . . . . . . .             + + + + + + @ @ @ @ @ @ # # # # # # # # $ # $ $ $ $ $ $ $ $ $ $ $ $ $ $ $ $ $ $ $ $ $ $ $ $ $ $ % & ",
". . . . .   .             + + + + @ + @ @ @ @ @ @ # @ # @ # # # # $ # $ $ $ $ $ $ $ $ $ $ $ $ $ $ $ $ $ $ $ $ $ $ $ $ $ $ $ * & ",
". . . @ = = = = = - - - ; > > > > > > > , , , ' ' ) ) ) ! ! ! ! ! ! ! ~ ~ { ] ] ] ] ^ / ( ( ( ( ( _ : : : < [ } } | 1 2 3 4 5 & ",
". . @ = = = = = - - - > $ > > > > > , , , , ' 6 6 ) ! ! ! ! ! ! ! ~ { { ] ] ] ] ^ / / ( ( ( ( 7 _ : : : [ [ } } 1 8 2 3 9 0 5 & ",
".   = @ = = - - - ; > > > > > > , , , , 6 6 ) ) ) ! ! ! ! ! ! { { { { ] ] ] ^ ^ / ( ( ( ( ( _ a : : < [ b } } 1 8 c d e f g h & ",
"  . = = - - - ; > ; > > > > > , , , , 6 ) ) ) ! ! ! ! ! ! ~ ! { { ] ] ] ] ^ / ( ( ( ( ( ( _ : : : < [ } } } | | 2 3 i 9 f j k & ",
"    = - - $ ; > > > > > > , , , l 6 ) ) ) ! ! ! ! ! ! { { { { ] ] ] ] ^ / / ( ( ( ( ( _ a : : < [ b } } } | 1 m c n o 9 4 j p & ",
".   - - ; > > > > > > , , , , 6 ) 6 ) ) ! ! ! ! ! ! { { { ] ] ] ] ^ ^ / ( ( ( ( ( 7 _ : : : [ [ b } } } | | 1 2 3 n e f 4 j q & ",
"    - ; > > > > > > , , , ) ) ) ) ) ! ! ! ! ! { ~ { { ] ] ] ] ] ^ / ( ( ( ( ( ( _ a : : < < [ b } } } | 1 1 8 c d i e f 4 r q & ",
"    $ > > > > > , , , l ) 6 ) ) ! ! ! ! ! ~ ! { { { ] ] ] ] ] ^ / ( ( ( ( ( _ a a : : < < [ b } } } | | 1 1 m c d o f f 0 s q & ",
"  + > > > > , , , , ) ) ) ) ! ! ! ! ! ! { { { { ] ] ] ] ] / ^ / ( ( ( ( 7 7 a : : : < [ [ b } } } | 1 1 1 8 2 3 n o 9 4 j s t & ",
"  + $ > > , , , u ) ) ) ! ! ! ! ! ! v ~ { { ] ] ] ] ] ^ ^ / / ( ( ( ( _ _ : : : : < < [ b } } } | 1 1 1 8 m 2 3 i o f 0 j s t & ",
"+ + > > > , , ) ) ) ! ! ! ! ! ! v ~ ~ { { ] ] ] ] / ^ / / ( / ( ( ( _ a : : : : < [ [ [ } } } | 1 1 1 8 w m c d i e f 0 j x t & ",
"+ + > > , , ) ) ! ! ! ! ! ! ! ~ ~ ~ { ] ] ] ] ] ^ / / / ( ( ( ( ( _ a : : : : < < [ b } } } | | 1 1 8 w m c c n i f 4 j r x t & ",
"+ + > , , , ) ) ! ! ! ! ! ~ ~ ~ { { ] ] ] ] ] / / / / / ( ( 7 ( _ : : : : : [ < [ b } } } | 1 1 1 8 w m c c 3 n o y 0 j z x t & ",
"+ + > , , ) ) ! ! ! ! ! A ~ ~ { { ] ] ] ] ] ^ / / / ( ( ( ( 7 _ : : : : : < < [ b } } } | 1 1 1 8 w m c B c 3 i e f 0 j C D E & ",
"+ @ , , l ) ! ! ! ! ~ ~ ~ { { ] ] ] ] ] ] / / / / / ( ( ( _ _ : : : : < < [ [ b } } } | 1 1 1 8 w m c B c 3 d i e F 0 r C G E & ",
"+ @ , , ) ) ! ! ! ! ~ ~ { { ] ] ] ] ] ] ^ / / / ( ( ( ( _ _ : : : : < < [ [ b } } } | | 1 1 8 w m c B c 3 3 H I y 4 j r s G E & ",
"@ @ , ) ) ! ! ! ! { ~ { { ] ] ] ] ] ] / / / ( / ( ( ( _ _ : : : : < [ [ b b } } } | 1 1 1 8 w m c B c 3 3 d H e y 0 j z s J E & ",
"+ @ , ) ) ! ! ! ! ~ { { ] ] ] ] ] ] ^ / / / ( ( ( ( _ _ : : : : < < [ b b } } } | 1 1 1 8 w m c B c 3 3 d d i I f 0 r z s J K & ",
"@ @ ) ) ! ! ! ! { { { ] ] ] ] ] ^ ^ / / ( / ( L ( _ _ : : : < < [ [ b b b } } 1 1 1 1 8 w m c B c 3 3 d d H i y f g r C x M K & ",
"@ @ ) ) ! ! ! ! ! { ] ] ] ] ] ^ ^ / / ( / ( L L _ _ : : : : < < [ b b } } } | | 1 1 8 w m c B c 3 3 d d H i I y 4 j r s x J N & ",
"@ # ) ! ! ! ! { { ] ] ] ] ] ^ / / / ( / ( L L _ _ : : : < < < [ b b b } } | 1 1 1 8 w m c B c 3 3 d d H H i i f 4 j r s x M N & ",
"@ # ) ! ! ! ! { ] ] ] ] ] ^ / / / ( / ( L L _ O : : : : < < [ b b b } } 1 1 1 1 8 w m c B c 3 3 d d H H i i y f 0 j z s P M Q & ",
"# # ! ! ! { { { ] ] ] ] / / / / / / ( ( L _ O O : : < [ < [ b b b } } 1 1 1 1 8 w m c B c 3 3 d d H H i i i f f g r z x P M R & ",
"@ # ! ! ! { { ] ] ] ] ^ / / / ( / ( ( L _ _ : : : : < [ [ b b } } 1 1 1 1 1 8 w m c B c 3 3 d d H H i i i i f f j r s x J M R & ",
"# # ! ! { { ] ] ] ] / / / / / / ( ( L _ O : S : : [ [ [ b b b } 1 1 1 1 1 8 w m c B c 3 3 d d H H i i i i e f 4 j r s P J T R & ",
"@ # ! ! { ] ] ] ^ ^ / / / / ( ( ( L _ O : S : : [ [ [ b b b } U 1 1 1 1 8 w m c B c 3 3 d d H H i i i i o e f 4 j z s J V T W & ",
"# # ! { { ] ] ^ ^ / / / ( ( ( ( L _ O : S : [ [ [ [ b b b } 1 1 1 1 8 8 m m c B c 3 3 d d H H i i i i o e f f X r s x J V T W & ",
"# # { { ] ] ^ ^ / / ( ( ( ( ( _ _ O : S : : S [ [ b b b } 1 1 1 1 8 8 m m c B c 3 3 d d H H i i i i I e y f f j r s P J M Y Z & ",
"# # { { ] ] ^ / ( ( ( ( ( ( _ _ O : S : [ [ [ [ [ b b } 1 1 1 1 8 8 m m B B c 3 3 d d H H i i i i o e f f f 4 j z x P J M Y Z & ",
"# $ { ] ] ^ / ( ( ( ( ( ( _ _ O : S : : S [ [ [ } } } 1 1 1 1 8 8 m w B B c 3 3 d d H H i i i i i e f y f 4 0 r s x ` J T  .Z & ",
"$ # ] ] ^ / ( ( ( ( ( ( _ _ O : : : [ [ [ [ [ } } U 1 1 1 1 8 8 m m B B c 3 3 d d H H i i i i o e f f f 4 4 j r s x ` V T  .Z & ",
"# $ ] ] ^ / ( ( ( ( L _ a : : : S [ [ [ [ b [ } U 1 1 1 1 8 w w B B B c 3 3 d d H H i i i i I e f y f 4 4 0 j r s x J M T  ...& ",
"$ $ ] ^ / ( ( ( ( a _ a : : : S [ [ [ [ +.} } U 1 1 1 1 8 w m B c B c 3 3 d d H H i i i i o e f f f 4 4 0 0 j z s P J @.#.$...& ",
"$ $ ] / / ( ( ( ( _ a : : : S : [ [ [ } +.} U 1 1 1 1 8 w w B c B c 3 3 d d H H i i i i i e f f f 4 4 0 0 0 r z x ` V T #.$.%.& ",
"$ $ ^ / ( ( ( L a a a : : [ [ [ [ +.} +.} U 1 1 1 1 8 w m B c B c 3 3 d d H H i i i i o e f y f 4 4 0 0 0 j r &.x J V T *.$.%.& ",
"$ $ / ( ( _ ( _ a a S : [ : [ [ +.+.} } U 1 1 1 1 8 w w B c B c 3 3 d d H H i i i i I e y f f 4 4 4 0 0 j j r s x J M T =.-.%.& ",
"$ $ ( ( ( _ _ a a S : [ : [ [ +.} +.} 1 1 1 1 1 8 m m B c B c 3 3 d d H H i i i i o e f f f 4 4 0 0 0 j j j z x P J ;.Y =.-.%.& ",
"$ $ ( ( _ _ _ : : : : [ [ [ +.} +.} 1 | 1 1 1 8 m m c c c c 3 3 d d H H i i i i I e f y f 4 4 4 0 0 j j j r &.x J J T Y =.>.%.& ",
"$ $ ( L L O O : S [ [ [ [ +.} +.} 1 1 1 1 1 m m 2 c 2 c c 3 3 d d H H i i i i o e f f f 4 4 0 0 0 j j j r z s P J M T #.=.>.,.& ",
"$ $ ( L _ : : : [ : [ [ +.+.} } 1 1 1 1 8 m m 2 c 2 c c 3 3 d d H H i i i i I e f f f 4 4 4 0 0 j j j r z z s P J ;.T  .$.>.'.& ",
"$ $ L L O O : [ : [ [ } } } U 1 1 1 1 w m 2 2 2 c c c 3 3 d d H H i i i i o e f f f 4 4 0 0 0 j j j r z z s x G J T T  .$.>.).& ",
"$ $ L O : : [ [ [ b } } } 1 1 1 1 1 w m 2 2 c c c c 3 3 d d i i i i i i I e f y f 4 4 4 0 0 j j j r z z &.s P J V T Y =.-.>.).& ",
"$ $ _ O : [ [ [ b } } } 1 1 1 w 1 w m 2 2 c c c 3 3 d d d i H i i i o o e f f f 4 4 0 0 0 j j j r z z &.s s P J M T Y $.-.!.~.& ",
"$ $ O : : : b b b } | 1 1 1 1 1 w m 2 c c c 3 3 d d d d i H i i i e e e f f f 4 4 4 0 0 j j j r z z s s s x P J M T {.$.-.!.~.& ",
"$ $ O : [ [ b } } | 1 1 1 w 1 w m 2 c c c d 3 3 d d n i n i e e e e e f y f 4 4 0 0 0 j j j r z z &.s s x x J J ;.#.=.-.>.!.~.& ",
"$ $ : S [ b } } 1 1 1 w 1 w w B c B c c 3 3 d d n n i i i e e e e e y f f 4 4 4 0 0 j j j r z z &.s s x x x P V T Y =.-.>.!.].& ",
"$ $ : [ [ } } 1 1 1 w 1 w w B 2 B c c d d d H n i i i o e e e e 9 9 f f 4 4 0 0 0 j j j r z z &.s s x x x P J M T Y $.-.^./.~.& ",
"$ $ S [ } } 1 1 1 w 1 w w B c B c c 3 3 3 H H i n i e e e e e 9 f f f 4 4 4 0 0 j j j r z z s s s x x x x J J @.T Y $.-.>./.].& ",
"$ $ [ b } 1 1 1 w 1 w w m B B c c d d d n n n n i e e e e e f f f f 4 4 0 0 0 j j j r z z &.s s x x x x J J M T Y Y -.-.!.(.].& ",
"$ $ [ } 1 1 1 w 1 w w B c c c c 3 3 d H n n i i e e e e e f y f f 4 4 4 0 0 j j j r z z &.s s x x x x D J V @.#.Y $.-.>.!./.].& ",
"$ $ } } 1 1 w 1 w w m B c c 3 d d n n i i i o e e e 9 y f f f 4 _.0 :.j j j r r z z s s s s x x x P J J V V #.#. .$.^.>.<./.].& ",
"$ $ } 1 1 1 1 w B c c c 3 3 n n n o o o o e f e f f f f 4 0 j :.j r r r r z &.&.s s x x P P P P J J J V V #.#. .$.^.>.!.(.[.}.& ",
"$ $ U 1 1 w B c c 3 3 d i i o o o o e f f f f 4 4 0 g j j r r r z z &.&.s s x P P P P G J J J J V M M T T #.|. .$.^.1.2.3.* ].& ",
"$ $ 1 1 B c c 3 3 i i o o o f e f 4 4 4 4 0 0 j j j r r z &.s s &.x x x P P P P J J J J J J M T T T #.#.4.|.|.$.^.1.2.3.3.[.}.& ",
"$ $ 1 B c 3 H i o o o f f 4 4 4 _.X 4 j j j r r r z s s x x x x P P ` ` J J J V V M M ;.;.T T #.#.4.4.{. .$.$.^.2.2.(.(.[.5 }.& ",
"$ $ c c d i o o f f 4 4 _._.j X j j r r z z C s s x x x P ` ` ` ` J J V M M M ;.T T T T Y #. . .{.$.|.$.$.$.^.1.2.(.3.[.[.5.}.& ",
"$ $ c d i e f 4 4 4 :.j j j j r r z s s s x x x P ` ` J J J V V M M @.@.T T T Y T Y Y  .=.=.$.$.$.^.^.^.1.1.1.2.(.3.3.[.5.6.}.& ",
"$ $ d i y 4 X _.j j r r r r s s s x x x P x ` J J V V V M M @.@.@.@.T Y Y Y *. .=.=.$.$.$.-.^.^.^.>.>.>.1.1.2.(.3.[.[.5 6.k 7.& ",
"$ $ i f X j j r r s s s s x x x P P J J J J V M M @.@.@.@.#.@.Y Y {.{.Y =.$.$.$.$.-.-.>.>.1.>.1.<.<.<.(.(.(.3.3.3.[.5.6.6.8.9.& ",
"$ $ f 0.0.s s x x x x D x J J J J ;.V ;.;.T T T #.#.#.#.|. .=.=.$.$.$.-.a.a.>.a.b.b.b.1.b.(.(.(.(.3.3.3.3.3.[.[.5.6.6.q 8.].c.& ",
"$ $ d.h h h p p e.e.q q q t t E E E K K N N N f.Q f.f.R R W W Z Z Z %.%.g.g.,.,.,.'.).).).).h.h.h.h.h.}.}.}.}.}.}.i.9.9.9.c.& & ",
"% c.c.c.c.& & & & & & & & & & & & & & & & & & & & & & & & & & & & & & & & & & & & & & & & & & & & & & & & & & & & & & & & & & & "};
