<?xml version="1.0" encoding="UTF-8" standalone="no"?>
<svg
   xmlns:osb="http://www.openswatchbook.org/uri/2009/osb"
   xmlns:dc="http://purl.org/dc/elements/1.1/"
   xmlns:cc="http://creativecommons.org/ns#"
   xmlns:rdf="http://www.w3.org/1999/02/22-rdf-syntax-ns#"
   xmlns:svg="http://www.w3.org/2000/svg"
   xmlns="http://www.w3.org/2000/svg"
   xmlns:xlink="http://www.w3.org/1999/xlink"
   xmlns:sodipodi="http://sodipodi.sourceforge.net/DTD/sodipodi-0.dtd"
   xmlns:inkscape="http://www.inkscape.org/namespaces/inkscape"
   version="1.1"
   width="760"
   height="760"
   id="svg586"
   sodipodi:docname="xfce4-wmdock.svg"
   inkscape:version="1.0.2 (e86c870879, 2021-01-15)"
   inkscape:export-filename="../48x48/xfce4-wmdock.png"
   inkscape:export-xdpi="8.0799999"
   inkscape:export-ydpi="8.0799999">
  <sodipodi:namedview
     pagecolor="#ffffff"
     bordercolor="#666666"
     borderopacity="1"
     objecttolerance="10"
     gridtolerance="10"
     guidetolerance="10"
     inkscape:pageopacity="0"
     inkscape:pageshadow="2"
     inkscape:window-width="1729"
     inkscape:window-height="1030"
     id="namedview53"
     showgrid="false"
     inkscape:zoom="0.58552632"
     inkscape:cx="493.52258"
     inkscape:cy="205.71077"
     inkscape:window-x="44"
     inkscape:window-y="0"
     inkscape:window-maximized="0"
     inkscape:current-layer="svg586" />
  <defs
     id="defs588">
    <linearGradient
       inkscape:collect="always"
       id="linearGradient2961">
      <stop
         style="stop-color:#545864;stop-opacity:1"
         offset="0"
         id="stop2957" />
      <stop
         style="stop-color:#000000;stop-opacity:1"
         offset="1"
         id="stop2959" />
    </linearGradient>
    <linearGradient
       inkscape:collect="always"
       id="linearGradient2933">
      <stop
         style="stop-color:#fffffd;stop-opacity:1"
         offset="0"
         id="stop2929" />
      <stop
         style="stop-color:#cdcfdd;stop-opacity:1"
         offset="1"
         id="stop2931" />
    </linearGradient>
    <linearGradient
       inkscape:collect="always"
       id="linearGradient2905">
      <stop
         style="stop-color:#a3a3b3;stop-opacity:1;"
         offset="0"
         id="stop2901" />
      <stop
         style="stop-color:#545864;stop-opacity:1"
         offset="1"
         id="stop2903" />
    </linearGradient>
    <linearGradient
       id="linearGradient4380">
      <stop
         id="stop968"
         style="stop-color:#000000"
         offset="0" />
      <stop
         id="stop970"
         style="stop-color:#000000;stop-opacity:0"
         offset="1" />
    </linearGradient>
    <linearGradient
       id="linearGradient4380-3">
      <stop
         id="stop4382"
         style="stop-color:#000000"
         offset="0" />
      <stop
         id="stop4384"
         style="stop-color:#000000;stop-opacity:0"
         offset="1" />
    </linearGradient>
    <linearGradient
       id="linearGradient3694">
      <stop
         id="stop3702"
         style="stop-color:#b7b7b7"
         offset="0" />
      <stop
         id="stop3698"
         style="stop-color:#000000"
         offset="1" />
    </linearGradient>
    <linearGradient
       id="linearGradient3743"
       osb:paint="gradient">
      <stop
         id="stop3745"
         style="stop-color:#ffffff"
         offset="0" />
      <stop
         id="stop3751"
         style="stop-color:#7fd4ee"
         offset="0.5" />
      <stop
         id="stop3747"
         style="stop-color:#00aade"
         offset="1" />
    </linearGradient>
    <linearGradient
       id="linearGradient3652">
      <stop
         id="stop3654"
         style="stop-color:#ffffff"
         offset="0" />
      <stop
         id="stop3662"
         style="stop-color:#d5e2ec"
         offset="0.49903482" />
      <stop
         id="stop3656"
         style="stop-color:#d5e2ec"
         offset="1" />
    </linearGradient>
    <filter
       color-interpolation-filters="sRGB"
       id="filter3729">
      <feGaussianBlur
         stdDeviation="6.4154088"
         id="feGaussianBlur3731" />
    </filter>
    <linearGradient
       x1="965.02625"
       y1="17.489901"
       x2="1557.8665"
       y2="663.80927"
       id="linearGradient3737"
       xlink:href="#linearGradient3652"
       gradientUnits="userSpaceOnUse"
       gradientTransform="translate(-1581.6355,147.78233)" />
    <linearGradient
       x1="33.526711"
       y1="441.98093"
       x2="159.24117"
       y2="581.41302"
       id="linearGradient3966"
       xlink:href="#linearGradient3743"
       gradientUnits="userSpaceOnUse" />
    <linearGradient
       x1="245.51741"
       y1="426.95151"
       x2="305.39166"
       y2="531.48969"
       id="linearGradient3968"
       xlink:href="#linearGradient3743"
       gradientUnits="userSpaceOnUse"
       gradientTransform="translate(-0.38239847,2.6767893)" />
    <linearGradient
       x1="601.53467"
       y1="434.94836"
       x2="668.81775"
       y2="543.35834"
       id="linearGradient3970"
       xlink:href="#linearGradient3743"
       gradientUnits="userSpaceOnUse" />
    <linearGradient
       x1="440.52084"
       y1="455.93307"
       x2="486.95523"
       y2="535.30469"
       id="linearGradient3972"
       xlink:href="#linearGradient3743"
       gradientUnits="userSpaceOnUse"
       gradientTransform="translate(-0.50986462,6.1183754)" />
    <linearGradient
       x1="118.25153"
       y1="254.24648"
       x2="291.87143"
       y2="254.24648"
       id="linearGradient4386"
       xlink:href="#linearGradient4380-3"
       gradientUnits="userSpaceOnUse" />
    <filter
       color-interpolation-filters="sRGB"
       id="filter4631">
      <feGaussianBlur
         id="feGaussianBlur4633"
         stdDeviation="2.3336003" />
    </filter>
    <linearGradient
       x1="174.28104"
       y1="164.16707"
       x2="236.40213"
       y2="253.70575"
       id="linearGradient4162"
       xlink:href="#linearGradient3694"
       gradientUnits="userSpaceOnUse"
       gradientTransform="matrix(3.7524926,0,0,3.7524926,-424.92228,-686.03042)" />
    <filter
       color-interpolation-filters="sRGB"
       id="filter4223">
      <feGaussianBlur
         id="feGaussianBlur4225"
         stdDeviation="4.6672006" />
    </filter>
    <filter
       color-interpolation-filters="sRGB"
       id="filter4266">
      <feGaussianBlur
         id="feGaussianBlur4268"
         stdDeviation="1.308628" />
    </filter>
    <linearGradient
       inkscape:collect="always"
       xlink:href="#linearGradient2905"
       id="linearGradient2907"
       x1="0.83443868"
       y1="1.4409254"
       x2="760.06934"
       y2="760.67584"
       gradientUnits="userSpaceOnUse"
       gradientTransform="matrix(0.92935554,0,0,0.92935554,27.188438,25.231283)" />
    <linearGradient
       inkscape:collect="always"
       xlink:href="#linearGradient4380-3"
       id="linearGradient2909"
       gradientUnits="userSpaceOnUse"
       x1="118.25153"
       y1="254.24648"
       x2="291.87143"
       y2="254.24648" />
    <linearGradient
       inkscape:collect="always"
       xlink:href="#linearGradient2933"
       id="linearGradient2935"
       x1="0.83443868"
       y1="1.4409254"
       x2="380.86838"
       y2="379.89706"
       gradientUnits="userSpaceOnUse" />
    <linearGradient
       inkscape:collect="always"
       xlink:href="#linearGradient2961"
       id="linearGradient2965"
       gradientUnits="userSpaceOnUse"
       x1="729.56311"
       y1="381.05838"
       x2="760.0694"
       y2="381.05838"
       gradientTransform="rotate(90,380.45192,381.0584)" />
    <linearGradient
       inkscape:collect="always"
       xlink:href="#linearGradient2961"
       id="linearGradient2994"
       gradientUnits="userSpaceOnUse"
       gradientTransform="translate(1.0351562e-5)"
       x1="729.56311"
       y1="381.05838"
       x2="760.0694"
       y2="381.05838" />
  </defs>
  <rect
     style="fill:url(#linearGradient2935);fill-opacity:1;stroke-width:1.13386;stroke-linecap:round;stroke-linejoin:round"
     id="rect2911"
     width="759.23492"
     height="759.23492"
     x="0.83443868"
     y="1.4409254" />
  <rect
     style="fill:url(#linearGradient2907);fill-opacity:1;stroke-width:1.05376;stroke-linecap:round;stroke-linejoin:round"
     id="rect944"
     width="705.59918"
     height="705.59918"
     x="27.963928"
     y="26.570415" />
  <path
     style="mix-blend-mode:darken;fill:url(#linearGradient2965);fill-opacity:1;stroke:none;stroke-width:1px;stroke-linecap:butt;stroke-linejoin:miter;stroke-opacity:1"
     d="M 760.0694,760.67584 736.93991,730.16958 H 31.3407 l -30.50622,30.5063 z"
     id="path2963" />
  <path
     style="mix-blend-mode:darken;fill:url(#linearGradient2994);fill-opacity:1;stroke:none;stroke-width:1px;stroke-linecap:butt;stroke-linejoin:miter;stroke-opacity:1"
     d="M 760.06937,1.4409255 729.56311,24.570415 V 730.16966 l 30.5063,30.5062 z"
     id="path2963-5" />
  <g
     transform="matrix(3.7524926,0,0,3.7524926,-424.92228,-574.31109)"
     id="g23"
     style="fill:url(#linearGradient4386);stroke:#000000;stroke-width:0.268145">
    <use
       transform="translate(1.8654516,1.1992028)"
       id="use4246"
       style="opacity:0.8;fill:url(#linearGradient2909);filter:url(#filter4266)"
       x="0"
       y="0"
       width="760"
       height="760"
       xlink:href="#path14" />
    <path
       d="m 118.94557,209.56947 c -0.915,0.501 7.2975,5.88275 22.6875,12.21875 15.391,6.336 36.667,22.37675 35,24.96875 -4.999,7.041 -7.94125,15.48225 -5.90625,29.90625 0.367,2.539 -7.54275,6.95025 -6.96875,10.78125 0.48,2.915 8.838,-2.896 9.75,-1.75 0.558,2.057 -4.4665,12.47475 -2.4375,13.21875 1.484,0.441 14.52325,-12.4015 15.28125,-12.1875 21.514,6.504 49.5205,1.61225 50.0625,1.40625 -0.051,-0.113 20.12,9.49175 21.875,8.34375 4.427,-4.794 -8.387,-11.551 -6.25,-14.25 0.937,-1.413 15.62075,5.30275 16.34375,3.46875 1.052,-3.175 -6.817,-9.8375 -8,-11.8125 -1.029,-1.821 -1.23275,-4.75375 1.40625,-6.59375 2.64,-1.84 29.632,-12.16625 28.5,-20.15625 -1.957,-14.518 -34.26025,-15.4655 -34.78125,-16.6875 -0.245,-0.574 1.44825,-20.76025 -7.96875,-17.03125 -5.798,2.158 -1.09375,15.0245 -0.71875,16.6875 0.346,1.531 -2.574,1.3595 -3.125,0.6875 -1.23,-1.502 -5.2725,-14.92525 -10.0625,-12.53125 -6.718,3.704 -0.41,15.28125 -1.75,15.65625 -2.489,1.391 -2.34875,4.7945 -4.34375,7.5625 -3.29,4.715 -27.917,-2.2055 -35.875,-2.6875 -5.826,-0.344 -11.38025,4.4205 -11.90625,3.8125 -7.094,-7.104 -21.76475,-19.48475 -37.84375,-23.59375 -9.017,-2.447 -22.43075,-9.5275 -22.96875,-9.4375 z m 164.21875,13 c -0.53716,0.23183 -2.70444,11.39669 -1.65625,11.90625 0.929,0.695 2.5355,-11.257 1.6875,-11.875 -0.0138,-0.016 -0.0139,-0.0387 -0.0313,-0.0313 z m 7.96875,1.53125 c -1.21841,-0.0224 -7.71547,10.3605 -6.21875,11.46875 0.929,0.695 6.7105,-11.0445 6.3125,-11.4375 -0.0278,-0.023 -0.0544,-0.0305 -0.0937,-0.0313 z m -31.5,12.65625 c 1.53924,0 2.78125,1.40374 2.78125,3.15625 0,1.75251 -1.24201,3.1875 -2.78125,3.1875 -1.53924,0 -2.78125,-1.43499 -2.78125,-3.1875 0,-1.75251 1.24201,-3.15625 2.78125,-3.15625 z m -6.25,1.90625 c 1.184,5.111 3.0165,6.7255 8.5625,6.5625 -7.059,6.473 -11.3335,-4.6035 -8.5625,-6.5625 z m 14.9375,13.375 c 0.43934,-0.0356 0.77562,0.0333 0.96875,0.21875 2.781,1.008 -11.93325,6.3115 -12.03125,5.5625 -0.14787,-0.51625 7.98709,-5.53182 11.0625,-5.78125 z m 1.8125,3.375 c 0.15222,-0.0118 0.29388,0.0358 0.40625,0.0937 2.625,2.608 -8.3105,8.3905 -8.1875,8.1875 -0.88125,-0.5325 5.498,-8.1041 7.78125,-8.28125 z"
       id="path14"
       style="fill:#000000;fill-rule:evenodd;stroke:#000000;stroke-width:0.268145" />
    <path
       d="m 21.40625,100.375 c -3.433531,1.88 27.405389,22.06796 85.15625,45.84375 57.75461,23.77579 137.59916,83.99229 131.34375,93.71875 -18.75871,26.4213 -29.82382,58.0928 -22.1875,112.21875 1.37716,9.52758 -28.27893,26.0617 -26.125,40.4375 1.62157,9.84768 27.16679,-6.83583 34.75,-7.125 C 211.59347,288.40086 380.71993,233.48854 524.375,211.125 c 0.42249,-0.61852 0.9417,-1.14571 1.53125,-1.5625 0.10346,0.44662 0.20625,0.84878 0.3125,1.28125 4.64119,-0.71462 9.26483,-1.41562 13.84375,-2.0625 1.73622,-3.79693 5.24284,-6.375 9.28125,-6.375 3.18263,0 6.02524,1.58871 7.9375,4.125 23.87521,-2.99523 46.50573,-5.06548 66.84375,-6.21875 -37.95486,-16.11541 -88.98683,-18.63101 -90.25,-21.59375 -0.91936,-2.15393 5.43097,-77.89929 -29.90625,-63.90625 -21.75695,8.09788 -4.09468,56.35335 -2.6875,62.59375 1.29836,5.74507 -9.68238,5.11543 -11.75,2.59375 -4.61557,-5.63624 -19.77556,-56.01472 -37.75,-47.03125 -25.20925,13.89923 -1.53416,57.34282 -6.5625,58.75 -9.33995,5.21972 -8.82628,17.9881 -16.3125,28.375 -12.3457,17.693 -104.76266,-8.2538 -134.625,-10.0625 -21.86202,-1.29086 -42.68244,16.56277 -44.65625,14.28125 -26.62018,-26.65771 -81.66367,-73.11226 -142,-88.53125 C 73.788774,126.5989 23.425091,100.03728 21.40625,100.375 Z"
       transform="matrix(0.26648953,0,0,0.26648953,113.23734,182.81993)"
       id="path4083"
       style="fill:url(#linearGradient4162)" />
  </g>
</svg>
